<svg xmlns="http://www.w3.org/2000/svg" xmlns:xlink="http://www.w3.org/1999/xlink" width="563.5" height="377.581" viewBox="0 0 563.5 377.581"><defs><linearGradient id="a" x1="0.5" y1="1.242" x2="0.5" y2="0.321" gradientUnits="objectBoundingBox"><stop offset="0" stop-color="#62842c"/><stop offset="1" stop-color="#88b34c"/></linearGradient><linearGradient id="b" x1="0.199" y1="1.238" x2="0.403" y2="0.416" gradientUnits="objectBoundingBox"><stop offset="0" stop-color="#c7c9c3"/><stop offset="1" stop-color="#e4f2d1"/></linearGradient><linearGradient id="c" x1="-0.083" y1="0.5" x2="0.917" y2="0.5" gradientUnits="objectBoundingBox"><stop offset="0" stop-color="#c8ccc2"/><stop offset="1" stop-color="#f4ffe4"/></linearGradient></defs><g transform="translate(-282 -283.5)"><path d="M1188.553,1714.375h51a5,5,0,0,1,5,5h0a5,5,0,0,1-5,5h-51a5,5,0,0,1-5-5h0A5,5,0,0,1,1188.553,1714.375Z" transform="translate(-649 -1171.294)" fill="#fff"/><path d="M1420.7,1634.321v85.119c-.017,4.2-4.215,7.605-9.4,7.619H1014.953c-5.184-.014-9.383-3.417-9.4-7.619V1463.754c.017-4.2,4.216-7.606,9.4-7.619H1411.3c5.185.014,9.383,3.417,9.4,7.619v170.567" transform="translate(-649 -1171.635)" fill="#fff" stroke="#88b34c" stroke-miterlimit="10" stroke-width="2"/><path d="M1016.111,1456.952h394.1c5.283,0,9.536,3.123,9.566,9.358v20.88H1006.724a.177.177,0,0,1-.179-.175h0v-20.688c0-2.485.614-5.229,2.409-6.988S1013.571,1456.952,1016.111,1456.952Z" transform="translate(-649 -1171.294)" fill="#f2f3f1"/><circle cx="7.5" cy="7.5" r="7.5" transform="translate(371.553 293.081)" fill="#fff"/><circle cx="4.5" cy="4.5" r="4.5" transform="translate(374.553 296.081)" fill="#f38a6f"/><circle cx="7.5" cy="7.5" r="7.5" transform="translate(390.553 293.081)" fill="#fff"/><circle cx="4.5" cy="4.5" r="4.5" transform="translate(393.553 296.081)" fill="#f3c707"/><circle cx="7.5" cy="7.5" r="7.5" transform="translate(409.553 293.081)" fill="#fff"/><circle cx="4.5" cy="4.5" r="4.5" transform="translate(412.553 296.081)" fill="#96e297"/><path d="M0,0H65.542l-.035,10.109H.053Z" transform="translate(638.866 547)" fill="#fff"/><g transform="translate(0 -2.706)"><rect width="351.422" height="199.22" transform="translate(387.318 338.706)" fill="#f2f3f1"/><rect width="169.225" height="22.531" rx="2.816" transform="translate(508.003 408.795)" fill="#fff"/><rect width="169.225" height="22.531" rx="2.816" transform="translate(508 377.706)" fill="#fff"/><g transform="translate(429.492 365.525)"><circle cx="29.754" cy="29.754" r="29.754" fill="#bfd8a6"/><path d="M1099.995,1618.128l-2.125,17a16.99,16.99,0,0,0,7.438,3.188,16.612,16.612,0,0,0,5.313,0l1.062-19.127Z" transform="translate(-1074.492 -1588.375)" fill="#f8f8f8"/><path d="M1098.933,1601.127c-1.965,1.615-2.019,4.973-2.125,11.689-.075,4.69-.086,7.057,1.062,8.5,2.55,3.187,8.787,3.824,12.751,1.062,5.813-4.059,3.411-13.039,3.188-13.814a11.541,11.541,0,0,0-5.313-7.438C1105.808,1599.659,1101.526,1599,1098.933,1601.127Z" transform="translate(-1074.492 -1588.375)" fill="#fff"/><path d="M1091.495,1599c-.436,1.647,2.306,4.335,5.313,5.313,5.313,1.732,10.206-2.72,11.689-1.062s-2.758,6.429-1.062,8.5c1.423,1.753,5.483-.34,6.376,1.062,1.242,1.966-6.376,6.664-5.313,11.69.531,2.621,3.274,4.7,4.251,4.251s-.223-2.759,0-6.375c.447-7.269,5.738-9.361,5.313-15.939a9.017,9.017,0,0,0-1.062-4.251c-2.667-4.654-9.564-5.058-13.813-5.313C1101.865,1596.8,1092.228,1596.228,1091.495,1599Z" transform="translate(-1074.492 -1588.375)" fill="#88b34c"/><path d="M1087.244,1641.507c-1.169-2.88,6.237-10.041,14.877-11.69,9.478-1.807,19.35,3.188,19.126,6.375C1120.865,1641.719,1089.368,1646.7,1087.244,1641.507Z" transform="translate(-1074.492 -1588.375)" fill="#88b34c"/></g><g transform="translate(508.003 443.335)"><rect width="169.225" height="22.531" rx="3.164" fill="#88b34c"/><text transform="translate(64.587 15.942)" fill="#fff" font-size="12" font-family="Roboto-Medium, Roboto" font-weight="500" letter-spacing="0.02em"><tspan x="0" y="0">LOG IN</tspan></text></g><g transform="translate(526 417.988)"><circle cx="2.5" cy="2.5" r="2.5" fill="#a6af98"/><circle cx="2.5" cy="2.5" r="2.5" transform="translate(10)" fill="#a6af98"/><circle cx="2.5" cy="2.5" r="2.5" transform="translate(20)" fill="#a6af98"/><circle cx="2.5" cy="2.5" r="2.5" transform="translate(30)" fill="#a6af98"/><circle cx="2.5" cy="2.5" r="2.5" transform="translate(40)" fill="#a6af98"/><circle cx="2.5" cy="2.5" r="2.5" transform="translate(50)" fill="#a6af98"/><circle cx="2.5" cy="2.5" r="2.5" transform="translate(60)" fill="#a6af98"/><circle cx="2.5" cy="2.5" r="2.5" transform="translate(70)" fill="#a6af98"/></g></g><g transform="translate(1 2)"><ellipse cx="72" cy="16" rx="72" ry="16" transform="translate(611.553 627.081)" fill="#f2f3f1"/><g transform="translate(-649 -1198.294)"><path d="M1349.815,1688.349a14.464,14.464,0,0,1-3.937-2.431c-3.543-2.834-.321-6.209-1.806-8.086-5.752-3.678-13.475-6.285-22.726-12.825-2.053-1.45-4.81-2.627-8.2-5.564l1.32-5.281a82.7,82.7,0,0,1,19.614,8.958c4.844,3,13.954,6.814,17.86,11.5a35.813,35.813,0,0,1,7.066,13.727A14.167,14.167,0,0,1,1349.815,1688.349Z" transform="translate(-11 -5)" fill="#fbb754"/><path d="M1316.308,1654.855a13.182,13.182,0,0,0-5.995-4.27c-2.468-.8-5.448-.936-5.816-.077-.4,1.086,3.862,2.944,3.428,4.7-.31,1.292-2.818,1.407-2.82,2.056s2.067,1.373,8.814,2.213Z" transform="translate(-11 -5)" fill="#eea886"/><path d="M1305.008,1680c-2.713,4.62-5.1,10.472-8.976,17.363-3.44,6.117-4.836,8.727-5.405,13.111-.593,4.559.022,8.587.9,14.315a99.249,99.249,0,0,0,2.9,13.126l4.775-2.118c-.353-4.043-.492-8.436-.773-12.749-.245-3.757-.792-7.7-.956-11.278l4.269-7.769,4.692-6.637,4.675-10.363c0-.37-.036-3.818-1.83-6A3.251,3.251,0,0,0,1305.008,1680Z" transform="translate(9.894 1)" fill="#ffbe5e"/><path d="M1329.268,1678.765q-.592-5.235-1.163-10.471h8.144l2.327,10.471Z" fill="#e3a07f"/><path d="M1313.562,1846.907v2.327l4.654-1.163v-1.164Z" transform="translate(1 -16)" fill="#ffbe5e"/><path d="M1318.215,1848.071a9.881,9.881,0,0,1,2.909,5.236,9.61,9.61,0,0,1,0,3.49h-4.654a2.48,2.48,0,0,0-1.163-1.163c-1.792-.745-3.863,1.71-6.4,2.909-1.792.838-4.654,1.466-9.308,0a50,50,0,0,1,4.072-2.909c3.211-2.129,4.747-2.757,6.981-4.654a26.815,26.815,0,0,0,2.909-2.909Z" transform="translate(1 -16)" fill="#62842c"/><path d="M1346.755,1847.827l.2,2.327,4.537-1.559-.093-1.163Z" transform="translate(1 -16)" fill="#ffbe5e"/><path d="M1351.493,1848.629a9.721,9.721,0,0,1,3.339,4.98,9.428,9.428,0,0,1,.3,3.49l-4.654.384a2.435,2.435,0,0,0-1.257-1.059c-1.85-.593-3.7,2.036-6.131,3.49-1.71.989-4.537,1.862-9.308.791,1.571-1.431,2.909-2.525,3.816-3.246,3.025-2.385,4.5-3.141,6.562-5.224a26.253,26.253,0,0,0,2.653-3.141Z" transform="translate(1 -16)" fill="#62842c"/><g transform="translate(1288.801 1738.857)"><path d="M646.305,1029.5q-9.469,7.1-18.939,14.2.09,15.678.18,31.356l20.1-14.74Q646.976,1044.909,646.305,1029.5Z" transform="translate(-618.166 -1021.46)" fill="#ffe9c7" stroke="#fe9801" stroke-linecap="round" stroke-linejoin="round" stroke-width="1"/><path d="M623.18,1036.5q1.341,2.68,2.68,5.36l3.84-.536q.09,15.678.18,31.356l-9.38-6.7Q621.841,1051.24,623.18,1036.5Z" transform="translate(-620.5 -1019.08)" fill="#fff2de" stroke="#fe9801" stroke-linecap="round" stroke-linejoin="round" stroke-width="1"/><path d="M622.473,1039.418c.894,1.786,2.078,3.52,2.972,5.306,1.281-.178,2.055-.241,3.334-.419,6.314-4.734,12.87-9.694,19.183-14.428-1.786-1.34-4.223-2.556-6.009-3.9Z" transform="translate(-619.82 -1022.48)" fill="#ffcf88"/><path d="M635.524,1024.833c.773.953,4.006,4.429,4.656,7.027a13.9,13.9,0,0,1,0,6.7" transform="translate(-616.72 -1022.48)" fill="none" stroke="#fe9801" stroke-linecap="round" stroke-linejoin="round" stroke-width="1"/><path d="M635.27,1046.28a52.4,52.4,0,0,1-2.68-10.72,22.063,22.063,0,0,1,0-8.04,18.889,18.889,0,0,1,1.34-4.02" transform="translate(-616.51 -1023.5)" fill="none" stroke="#fe9801" stroke-linecap="round" stroke-linejoin="round" stroke-width="1"/></g><path d="M0,1.731A11.634,11.634,0,0,0,2.378,8.3c1.732,2.182,4.684-.721,5.2-1.2C8.345,6.367,4.561,5.2,4.561,5.2S6.976,7.189,7.438,6.651c.32-.388.621-2.555-1.176-4.713C5.059.492,4.733.276,4.376.146,2.511-.527.42,1.32,0,1.731Z" transform="matrix(0.951, 0.309, -0.309, 0.951, 1305.032, 1735.454)" fill="#eea886"/><path d="M1330.432,1745.082c-6.224,20.513-4.293,35.153-1.163,44.926,1.943,6.06,4.223,9.434,8.144,19.724a205.511,205.511,0,0,1,9.308,32.248l1.989-.2,2.618-.274c2.013-19.329-1.163-32.753-4.654-41.639-2.036-5.194-3.921-8.194-4.654-14.245-1.245-10.2,2.42-15.582,2.327-28.491a68.907,68.907,0,0,0-1.163-12.052Z" transform="translate(1 -10)" fill="#9bbe6b"/><path d="M1333.925,1747.016c-2.711,7.072-5.817,15.526-9.308,25.255a49.717,49.717,0,0,0-3.49,15.373,43.2,43.2,0,0,0,1.163,12.08c1.547,6.984,1.71,19.018-4.072,41.177h-4.656c0-6.248-.279-11.64-.582-15.922-.186-2.643-.884-11.4-2.327-19.765-1.862-10.794-2.862-10.344-3.49-16.471-.419-3.975-.407-8.117,2.327-24.161,1.059-6.248,2.571-14.472,4.654-24.161Z" transform="translate(1 -10)" fill="#88b34c"/><path d="M1332.18,1673.553c-.791-.175-6.539-1.512-7.562-5.236-1.163-4.084,3.828-9.482,5.817-11.635h0c1.416,1.362,4.953,4.581,5.814,6.981C1337.7,1667.747,1332.7,1673.018,1332.18,1673.553Z" fill="#eea886"/><path d="M1331.6,1672.948c-1.547-1,.733-4.316-1.163-10.471-1.245-4.014-2.967-5.061-2.327-6.981.907-2.746,5.631-4.107,9.308-3.49s7.33,3.49,8.144,6.981C1347.349,1666.863,1334.446,1674.821,1331.6,1672.948Z" fill="#62842c"/><path d="M1338.285,1675.766c1.875-.382,6.639,2.262,9.067,5.549,5.532,7.519-3.554,13.872-4.739,29.872-1.066,14.858,5.864,22.466,0,26.888-4.073,3.081-11.362,2.38-15.4,1.992s-9.8-.936-13.034-3.984c-5.462-5.129,1.6-12.02,2.37-26.888.782-15.256-4.537-26.079-.584-29.972,1.956-1.408,2.264-1.261,4.78-1.892a40.046,40.046,0,0,1,8.393-.945c.852-.1,2.872.633,4.886.334A19.185,19.185,0,0,0,1338.285,1675.766Z" fill="#ffbe5e"/></g></g><g transform="translate(777 537)"><path d="M1267.5,970.5q-1,34.5-2,69l45,27q-.5-35.5-1-71Z" transform="translate(-1265.5 -963.5)" fill="#eff6e7" stroke="#88b34c" stroke-linecap="round" stroke-linejoin="round" stroke-width="1"/><path d="M1260.5,989.5l6,64-23,13q-.5-35.5-1-71l10,6Z" transform="translate(-1198.5 -963.5)" fill="#fff" stroke="#88b34c" stroke-linecap="round" stroke-linejoin="round" stroke-miterlimit="10" stroke-width="1"/><path d="M1308.365,988.846,1263.521,963.5l-5,7-9.865-.483L1290.515,995l9.907,5.846Z" transform="translate(-1246.521 -963.5)" fill="#c2df99"/><path d="M1308.5,963.5l-5,7-10-.517c4.811,2.864,9.71,5.787,14.521,8.651C1308.21,973.436,1308.314,968.7,1308.5,963.5Z" transform="translate(-1291.503 -963.5)" fill="#e6f8cc"/><circle cx="2" cy="2" r="2" transform="translate(26 33)" fill="none" stroke="#88b34c" stroke-miterlimit="10" stroke-width="1"/><circle cx="2" cy="2" r="2" transform="translate(13 24)" fill="none" stroke="#88b34c" stroke-miterlimit="10" stroke-width="1"/><path d="M1297.375,998.5c.253,6.879-2.369,12.037-6,13a6.594,6.594,0,0,1-5-1c-4.369-2.929-5.093-11.335-2-21" transform="translate(-1269.375 -963.5)" fill="none" stroke="#88b34c" stroke-linecap="round" stroke-miterlimit="10" stroke-width="1"/></g><g transform="translate(739 556)"><path d="M1305.5,989.5q-1,34.5-2,69l45,27q-.5-35.5-1-71Z" transform="translate(-1303.5 -982.5)" fill="#ffe9c7" stroke="#fe9801" stroke-linecap="round" stroke-linejoin="round" stroke-width="1"/><path d="M1298.5,1008.5l6,64-23,13q-.5-35.5-1-71l10,6Z" transform="translate(-1236.5 -982.5)" fill="#fff2de" stroke="#fe9801" stroke-linecap="round" stroke-linejoin="round" stroke-miterlimit="10" stroke-width="1"/><path d="M1346.453,1007.955,1301.645,982.5l-5,7-9.953-.516,42.229,25.145,9.575,5.646Z" transform="translate(-1284.645 -982.5)" fill="#ffcf88"/><circle cx="2" cy="2" r="2" transform="translate(26 33)" fill="none" stroke="#fe9801" stroke-miterlimit="10" stroke-width="1"/><circle cx="2" cy="2" r="2" transform="translate(13 24)" fill="none" stroke="#fe9801" stroke-miterlimit="10" stroke-width="1"/><path d="M1335.375,1017.5c.253,6.879-2.369,12.037-6,13a6.6,6.6,0,0,1-5-1c-4.369-2.929-5.093-11.335-2-21" transform="translate(-1307.375 -982.5)" fill="none" stroke="#fe9801" stroke-linecap="round" stroke-miterlimit="10" stroke-width="1"/></g><g transform="translate(-56 -68.6)"><path d="M266.84,986.626c-2.328-1.159-2.243-5.821-2.116-12.877.161-8.916.383-21.126-4.285-32.358-4.958-11.931-.536-15.418,3.74-18.791,4.79-3.777,9.314-7.345.631-23.447-3.988-7.4-5.254-12.4-3.984-15.743,1.255-3.306,4.775-4.594,8.5-5.958,6.433-2.354,13.724-5.023,12.782-18.638-.289-4.174.2-6.741,1.544-8.078,1.459-1.453,3.608-1.3,6.1-1.113,3.76.275,8.018.587,11.728-4.254.385-1.209,3.932-12,8.175-13.853a3,3,0,0,1,2.6.014h0c2.929,1.4,4.628,3.062,5.2,5.079.988,3.508-1.582,7.465-4.558,12.047-4.676,7.2-9.977,15.361-4.479,25.072,7.268,12.841,3.429,17.335-1.884,23.554-3.044,3.563-6.494,7.6-8.8,14.188-1.855,5.3,1.309,10.349,4.369,15.234,3.839,6.128,7.808,12.464-.549,17.962-13.817,9.09-27.463,38.764-27.6,39.063l-.056.124-.107.083c-2.546,2-4.4,2.948-5.794,2.948A2.532,2.532,0,0,1,266.84,986.626Zm-1.97-63.151c-4.132,3.259-8.036,6.337-3.4,17.488,4.757,11.447,4.533,23.792,4.37,32.806-.112,6.154-.2,11.014,1.5,11.859.994.495,2.894-.341,5.651-2.485C274.093,980.743,269.81,919.58,264.87,923.475Z" transform="translate(116.37 -286.629)" fill="#eff6e7"/><g transform="translate(384.245 576.463)"><path d="M312.29,1117.091c6.737-4.738,14.622-37.757,15.093-57.424.241-10.075,3.219-14.272,5.846-17.974,2.512-3.54,4.68-6.6,3.417-13.616-2.415-13.414,3.934-19.2,4-19.261l-.735-.838c-.283.247-6.894,6.219-4.36,20.3,1.18,6.558-.766,9.3-3.229,12.773-2.585,3.644-5.8,8.178-6.051,18.593-.5,21.106-8.566,52.282-14.62,56.539Z" transform="translate(-311.649 -1007.978)" fill="#88b34c"/></g><path d="M87.886,1313.992c-.636-1.441-1.294-2.932-2.039-4.5-3.849-8.125-7.258-9.462-12.907-11.679-1.38-.542-2.945-1.156-4.662-1.927-8.091-3.636-6.525-8.995-5.142-13.722.193-.662.386-1.321.553-1.974.712-2.781-.655-4.175-2.725-6.287a23.609,23.609,0,0,1-4.928-6.608c-1.615-3.376-.792-5.186.183-6.11,2.053-1.946,6.786-1.587,11.254.852a16.266,16.266,0,0,1,3.741,3.222c2.849,2.983,6.394,6.7,15.36,6.737,5.113.024,7.913.73,9.364,2.36,1.646,1.849,1.336,4.618.906,8.451-.149,1.325-.317,2.828-.419,4.451a25.965,25.965,0,0,0,5.164,16.739c3.415,4.067,7.623,12.5,5.807,17.7a6.217,6.217,0,0,1-5.06,4.072,14.39,14.39,0,0,1-2.849.309C93.216,1326.07,90.92,1320.869,87.886,1313.992Zm18.458,7.33Z" transform="translate(282.878 -638.047)" fill="#eff6e7"/><g transform="translate(338 621.883)"><path d="M87.886,1313.992c-.636-1.441-1.294-2.932-2.039-4.5-3.849-8.125-7.258-9.462-12.907-11.679-1.38-.542-2.945-1.156-4.662-1.927-8.091-3.636-6.525-8.995-5.142-13.722.193-.662.386-1.321.553-1.974.712-2.781-.655-4.175-2.725-6.287a23.609,23.609,0,0,1-4.928-6.608c-1.615-3.376-.792-5.186.183-6.11,2.053-1.946,6.786-1.587,11.254.852a16.266,16.266,0,0,1,3.741,3.222c2.849,2.983,6.394,6.7,15.36,6.737,5.113.024,7.913.73,9.364,2.36,1.646,1.849,1.336,4.618.906,8.451-.149,1.325-.317,2.828-.419,4.451a25.965,25.965,0,0,0,5.164,16.739c3.415,4.067,7.623,12.5,5.807,17.7a6.217,6.217,0,0,1-5.06,4.072,14.39,14.39,0,0,1-2.849.309C93.216,1326.07,90.92,1320.869,87.886,1313.992ZM66.94,1263.01c-3.991-2.179-8.269-2.618-9.954-1.022-1.28,1.213-.676,3.291.055,4.821a22.356,22.356,0,0,0,4.719,6.309c2.166,2.209,3.876,3.955,3.009,7.343-.17.665-.366,1.336-.563,2.01-1.376,4.708-2.676,9.155,4.53,12.393,1.692.76,3.243,1.369,4.612,1.906,5.7,2.238,9.468,3.716,13.506,12.239.752,1.586,1.412,3.084,2.051,4.532,3.486,7.9,5.589,12.668,13.21,11.127a5.171,5.171,0,0,0,4.23-3.348c1.6-4.577-2.229-12.59-5.61-16.616a26.612,26.612,0,0,1-5.421-17.524c.1-1.65.274-3.167.424-4.505.4-3.546.684-6.108-.631-7.586-1.2-1.352-3.835-1.964-8.536-1.986-9.44-.045-13.167-3.947-16.161-7.082a15.242,15.242,0,0,0-3.469-3.013Z" transform="translate(-55.122 -1259.93)" fill="#88b34c"/></g><g transform="translate(346.642 630.781)"><path d="M141.513,1372.964l1.113-.058c-.055-1.045-1.458-25.687-11.352-32.9-10.855-7.912-14.277-16.415-15.907-22.122-1.921-6.725-11.7-8.523-12.111-8.6l-.194,1.1c.095.017,9.5,1.751,11.233,7.8,1.675,5.865,5.19,14.6,16.322,22.716C140.087,1347.81,141.5,1372.713,141.513,1372.964Z" transform="translate(-103.062 -1309.289)" fill="#88b34c"/></g><path d="M266.84,986.626c-2.328-1.159-2.243-5.821-2.116-12.877.161-8.916.383-21.126-4.285-32.358-4.958-11.931-.536-15.418,3.74-18.791,4.79-3.777,9.314-7.345.631-23.447-3.988-7.4-5.254-12.4-3.984-15.743,1.255-3.306,4.775-4.594,8.5-5.958,6.433-2.354,13.724-5.023,12.782-18.638-.289-4.174.2-6.741,1.544-8.078,1.459-1.453,3.608-1.3,6.1-1.113,3.76.275,8.018.587,11.728-4.254.385-1.209,3.932-12,8.175-13.853a3,3,0,0,1,2.6.014h0c2.929,1.4,4.628,3.062,5.2,5.079.988,3.508-1.582,7.465-4.558,12.047-4.676,7.2-9.977,15.361-4.479,25.072,7.268,12.841,3.429,17.335-1.884,23.554-3.044,3.563-6.494,7.6-8.8,14.188-1.855,5.3,1.309,10.349,4.369,15.234,3.839,6.128,7.808,12.464-.549,17.962-13.817,9.09-27.463,38.764-27.6,39.063l-.056.124-.107.083c-2.546,2-4.4,2.948-5.794,2.948A2.532,2.532,0,0,1,266.84,986.626Zm34.091-42.889c7.447-4.9,4.1-10.247.218-16.44-3.051-4.87-6.509-10.391-4.477-16.194,2.375-6.784,5.9-10.907,9-14.544,5.206-6.094,8.645-10.12,1.761-22.281-5.83-10.3-.094-19.132,4.515-26.229,2.828-4.355,5.271-8.115,4.42-11.138-.476-1.69-1.982-3.122-4.6-4.376h0a1.909,1.909,0,0,0-1.67,0c-3.936,1.714-7.551,13.143-7.587,13.258l-.029.092-.058.077c-4.089,5.4-8.894,5.051-12.755,4.768-2.307-.169-4.129-.3-5.228.791-1.081,1.077-1.48,3.436-1.219,7.212,1,14.451-7.046,17.4-13.511,19.762-3.632,1.329-6.769,2.478-7.843,5.307-1.146,3.02.1,7.729,3.923,14.819,9.127,16.927,4.019,20.955-.922,24.851-4.132,3.259-8.036,6.337-3.4,17.488,4.757,11.447,4.533,23.792,4.37,32.806-.112,6.154-.2,11.014,1.5,11.859.994.495,2.894-.341,5.651-2.485C274.093,980.743,287.162,952.8,300.932,943.737Z" transform="translate(116.37 -286.629)" fill="#88b34c"/><path d="M148.3,974.51c7.032-2.411,5.571,11.143,8.543,21.171s33.057,4.375,20.428,29.487,15.971,8.4,7.428,30.312-.743,45.351-10.028,39.389-5.217-33.557-14.874-36.836-11.233-7.1-1.671-16.018-25.054-17.764-16.512-35.763S140.177,977.3,148.3,974.51Z" transform="translate(213.098 -403.849)" fill="url(#a)"/><g transform="translate(366.008 601.707)"><path d="M229.012,1235.883c.884-3.751,8.437-36.765,1.39-40.756-6.211-3.517-6.058-17.2-5.089-30.116.858-11.436-13.829-16.78-14.454-17l-.373,1.05c.145.052,14.51,5.284,13.716,15.869-.995,13.267-1.1,27.345,5.651,31.169,5.351,3.03.424,29.563-1.926,39.531Z" transform="translate(-210.486 -1148.009)" fill="#fff"/></g><path d="M267.1,1570.246l-10.04,38.092H234.62l-10.04-38.092Z" transform="translate(143.969 -892.421)" fill="url(#b)"/><path d="M267.1,1570.246s-22.1,4.15-22.1,38.092H234.62l-10.04-38.092Z" transform="translate(143.969 -892.421)" fill="url(#c)"/></g><text transform="translate(525 390)" fill="#88b34c" font-size="12" font-family="Roboto-Regular, Roboto" letter-spacing="0.02em"><tspan x="0" y="0">MoveOn </tspan></text></g></svg>
